<?xml version="1.0" encoding="UTF-8"?>
<svg width="72px" height="72px" viewBox="0 0 72 72" version="1.1" xmlns="http://www.w3.org/2000/svg" xmlns:xlink="http://www.w3.org/1999/xlink">
    <title>ic_Recharge</title>
    <g id="Homepage" stroke="none" stroke-width="1" fill="none" fill-rule="evenodd">
        <g id="00---Carousel-Frame-02" transform="translate(-1524.000000, -948.000000)" fill="#202020" fill-rule="nonzero">
            <g id="Mobile-Internet" transform="translate(1492.000000, 948.000000)">
                <g id="ic_Recharge" transform="translate(32.000000, 0.000000)">
                    <path d="M44,8 C47.3137085,8 50,10.6862915 50,14 L50,58 C50,61.3137085 47.3137085,64 44,64 L28,64 C24.6862915,64 22,61.3137085 22,58 L22,14 C22,10.6862915 24.6862915,8 28,8 L44,8 Z M44,10 L28,10 C25.8578046,10 24.1089211,11.6839685 24.0048953,13.8003597 L24,14 L24,58 C24,60.1421954 25.6839685,61.8910789 27.8003597,61.9951047 L28,62 L44,62 C46.1421954,62 47.8910789,60.3160315 47.9951047,58.1996403 L48,58 L48,14 C48,11.8578046 46.3160315,10.1089211 44.1996403,10.0048953 L44,10 Z" id="Rectangle"></path>
                    <path d="M43,52 L29,52 C27.3431458,52 26,53.3431458 26,55 L26,57 C26,58.6568542 27.3431458,60 29,60 L43,60 C44.6568542,60 46,58.6568542 46,57 L46,55 C46,53.3431458 44.6568542,52 43,52 Z" id="Rectangle"></path>
                    <path d="M43,42 L29,42 C27.3431458,42 26,43.3431458 26,45 L26,47 C26,48.6568542 27.3431458,50 29,50 L43,50 C44.6568542,50 46,48.6568542 46,47 L46,45 C46,43.3431458 44.6568542,42 43,42 Z" id="Rectangle"></path>
                    <path d="M43,32 L29,32 C27.3431458,32 26,33.3431458 26,35 L26,37 C26,38.6568542 27.3431458,40 29,40 L43,40 C44.6568542,40 46,38.6568542 46,37 L46,35 C46,33.3431458 44.6568542,32 43,32 Z M43,34 C43.5522847,34 44,34.4477153 44,35 L44,37 C44,37.5522847 43.5522847,38 43,38 L29,38 C28.4477153,38 28,37.5522847 28,37 L28,35 C28,34.4477153 28.4477153,34 29,34 L43,34 Z" id="Rectangle"></path>
                    <path d="M43,22 L29,22 C27.3431458,22 26,23.3431458 26,25 L26,27 C26,28.6568542 27.3431458,30 29,30 L43,30 C44.6568542,30 46,28.6568542 46,27 L46,25 C46,23.3431458 44.6568542,22 43,22 Z M43,24 C43.5522847,24 44,24.4477153 44,25 L44,27 C44,27.5522847 43.5522847,28 43,28 L29,28 C28.4477153,28 28,27.5522847 28,27 L28,25 C28,24.4477153 28.4477153,24 29,24 L43,24 Z" id="Rectangle"></path>
                    <path d="M43,12 L29,12 C27.3431458,12 26,13.3431458 26,15 L26,17 C26,18.6568542 27.3431458,20 29,20 L43,20 C44.6568542,20 46,18.6568542 46,17 L46,15 C46,13.3431458 44.6568542,12 43,12 Z M43,14 C43.5522847,14 44,14.4477153 44,15 L44,17 C44,17.5522847 43.5522847,18 43,18 L29,18 C28.4477153,18 28,17.5522847 28,17 L28,15 C28,14.4477153 28.4477153,14 29,14 L43,14 Z" id="Rectangle"></path>
                </g>
            </g>
        </g>
    </g>
</svg>