<?xml version="1.0" encoding="UTF-8"?>
<svg width="72px" height="72px" viewBox="0 0 72 72" version="1.1" xmlns="http://www.w3.org/2000/svg" xmlns:xlink="http://www.w3.org/1999/xlink">
    <title>GLOBE</title>
    <g id="Homepage" stroke="none" stroke-width="1" fill="none" fill-rule="evenodd">
        <g id="00---Carousel-Frame-02" transform="translate(-324.000000, -948.000000)">
            <g id="GLOBE" transform="translate(324.000000, 948.000000)">
                <rect id="Rectangle" x="0" y="0" width="72" height="72"></rect>
                <path d="M36,4 C53.673112,4 68,18.326888 68,36 C68,53.673112 53.673112,68 36,68 L36,68 C18.326888,68 4,53.673112 4,36 C4,18.5036191 18.0417829,4.28687238 35.4708215,4.00428709 L36,4 L36,4 L36,4 Z M39.2432302,59.877772 L39.1426491,59.8857311 C38.108727,59.9613174 37.0603867,60 36,60 C34.9050206,60 33.8228863,59.9587524 32.7562089,59.8782158 L32.750521,59.856721 C32.7824509,59.9644018 32.8145116,60.0707495 32.8466867,60.1757573 L33.0409775,60.7896749 C33.0735442,60.8892973 33.1061924,60.9875669 33.1389057,61.0844769 L33.3358347,61.6495697 L33.5335372,62.1817171 C33.5665083,62.2676453 33.5994788,62.3521876 33.6324323,62.4353374 L33.8298173,62.9174732 L34.0260053,63.3658724 C34.0911143,63.5096809 34.1558924,63.6478138 34.2202082,63.7802185 L34.4116378,64.1601949 L34.5995059,64.5054852 C34.6304767,64.5601255 34.6612662,64.6133073 34.6918581,64.6650241 L34.8729061,64.9576918 C35.3189395,65.6451461 35.7131106,66 36,66 C36.2868894,66 36.6810605,65.6451461 37.1270939,64.9576918 L37.3081419,64.6650241 C37.3387338,64.6133073 37.3695233,64.5601255 37.4004941,64.5054852 L37.5883622,64.1601949 L37.7797918,63.7802185 C37.8119497,63.7140162 37.8442232,63.6463818 37.8765958,63.5773219 L38.0718898,63.1459097 C38.1045933,63.0711743 38.1373631,62.9950266 38.1701827,62.9174732 L38.3675677,62.4353374 C38.4005212,62.3521876 38.4334917,62.2676453 38.4664628,62.1817171 L38.6641653,61.6495697 L38.8610943,61.0844769 C38.8938076,60.9875669 38.9264558,60.8892973 38.9590225,60.7896749 L39.1533133,60.1757573 C39.18339,60.0775978 39.2133668,59.9782675 39.2432302,59.877772 Z M20.2350155,56.8901949 L20.2600322,56.9249744 C23.6183457,61.6131136 28.0819649,64.8044229 33.0322658,65.7257156 C32.7514689,65.2769525 32.4782567,64.765677 32.2139618,64.1966831 L31.9978607,63.7140178 L31.7859414,63.2056646 C31.6460852,62.858317 31.5091047,62.4941956 31.3751757,62.114003 L31.1765928,61.5317487 L30.9827189,60.9259149 L30.7936857,60.2970285 L30.6133161,59.6614185 C26.8966121,59.1888976 23.3979638,58.2357453 20.2350155,56.8901949 Z M51.7648627,56.8901658 L51.5784131,56.9689458 C48.4646554,58.2729647 45.0304609,59.1981691 41.3866839,59.6614185 L41.2063143,60.2970285 L41.0172811,60.9259149 L40.8234072,61.5317487 L40.6248243,62.114003 C40.4908953,62.4941956 40.3539148,62.858317 40.2140586,63.2056646 L40.0021393,63.7140178 L39.7860382,64.1966831 C39.5217433,64.765677 39.2485311,65.2769525 38.967456,65.7262917 C43.9302771,64.8021445 48.4037283,61.5973156 51.7648627,56.8901658 Z M8.77627092,48.6203292 L8.93309674,48.9537512 C11.9404776,55.2263285 17.0640614,60.291354 23.3789011,63.2238808 C20.8284647,61.1167097 18.5954456,58.389944 16.7988545,55.2010867 C13.610056,53.4045544 10.8832903,51.1715353 8.77627092,48.6203292 Z M63.2238808,48.6210989 L63.2056646,48.6421757 C61.1011338,51.1842842 58.3808385,53.4096844 55.2010867,55.2011455 C53.4045544,58.389944 51.1715353,61.1167097 48.6203292,63.2237291 C55.0471942,60.2396884 60.2396884,55.0471942 63.2238808,48.6210989 Z M41.7519877,43.8703631 L41.1905662,43.8952935 L40.1716773,43.9326365 C40.0010029,43.9381915 39.829906,43.9434104 39.6583977,43.9482903 L38.6244975,43.9734802 L37.5812488,43.9904035 L36,44 L34.9437166,43.9957239 C34.7683679,43.9943022 34.5933758,43.9925278 34.4187512,43.9904035 L33.3755025,43.9734802 L32.3416023,43.9482903 L31.3175779,43.9149654 C31.1477594,43.9087406 30.9783744,43.9021824 30.8094338,43.8952935 L30.2480123,43.8703631 C30.5864069,49.133452 31.2605712,53.9372191 32.2054524,57.8259587 C33.447975,57.9405413 34.7140346,58 36,58 C37.2859654,58 38.552025,57.9405413 39.7935995,57.8252878 L39.7165692,58.1423457 C40.7023745,54.1991246 41.4043562,49.2771135 41.7519877,43.8703631 Z M18.0871025,53.388616 L18.2690586,53.7306225 C21.715515,55.5929445 25.7271407,56.930357 30.0902499,57.5718907 L30.0885958,57.5614998 L29.9257429,56.8252571 L29.7685213,56.0691244 L29.6170628,55.2936287 L29.4714992,54.499297 L29.3319623,53.6866565 L29.1985838,52.8562343 L29.0714955,52.0085574 L28.9508292,51.1441528 L28.8367166,50.2635477 L28.7292895,49.3672691 L28.6286797,48.4558441 C28.6124868,48.302707 28.5965834,48.1489608 28.5809724,47.9946164 L28.4908355,47.0614601 L28.4078453,46.114475 L28.3321336,45.1541883 L28.263832,44.181127 L28.237,43.762 L27.818873,43.736168 L26.8458117,43.6678664 L25.885525,43.5921547 L24.9385399,43.5091645 L24.0053836,43.4190276 L23.086583,43.3218758 L22.1826653,43.2178409 L21.2941576,43.1070545 L20.4215869,42.9896486 L19.5654803,42.8657548 L18.7263648,42.735505 L17.9047676,42.5990308 L17.1012156,42.4564641 L16.3162361,42.3079366 C16.1869831,42.2826926 16.058526,42.2572057 15.9308756,42.2314787 L15.1747429,42.0742571 L14.4385002,41.9114042 L14.4281093,41.9097501 C15.0485161,46.1291742 16.3197234,50.0198836 18.0871025,53.388616 Z M57.5718907,41.9097501 L57.5614998,41.9114042 L56.8252571,42.0742571 L56.0691244,42.2314787 L55.2936287,42.3829372 L54.499297,42.5285008 L53.6866565,42.6680377 L52.8562343,42.8014162 L52.0085574,42.9285045 L51.1441528,43.0491708 L50.2635477,43.1632834 L49.3672691,43.2707105 L48.4558441,43.3713203 C48.302707,43.3875132 48.1489608,43.4034166 47.9946164,43.4190276 L47.0614601,43.5091645 L46.114475,43.5921547 L45.1541883,43.6678664 L44.181127,43.736168 L43.762,43.762 L43.736168,44.181127 L43.6678664,45.1541883 L43.5921547,46.114475 L43.5091645,47.0614601 L43.4190276,47.9946164 L43.3218758,48.913417 L43.2178409,49.8173347 L43.1070545,50.7058424 L42.9896486,51.5784131 L42.8657548,52.4345197 L42.735505,53.2736352 L42.5990308,54.0952324 L42.4564641,54.8987844 L42.3079366,55.6837639 C42.2826926,55.8130169 42.2572057,55.941474 42.2314787,56.0691244 L42.0742571,56.8252571 L41.9114042,57.5614998 L41.9097501,57.5718907 C46.2728593,56.930357 50.284485,55.5929445 53.7309414,53.7306225 C55.5929445,50.284485 56.930357,46.2728593 57.5718907,41.9097501 Z M6.2737083,38.967456 L6.31656747,39.1866488 C7.29256966,44.0617877 10.4720018,48.4532242 15.1098342,51.7648627 C13.7642547,48.6020362 12.8111024,45.1033879 12.3385815,41.3866839 L11.7029715,41.2063143 L11.0740851,41.0172811 L10.4682513,40.8234072 L9.88599699,40.6248243 C9.50580444,40.4908953 9.14168298,40.3539148 8.79433537,40.2140586 L8.28598219,40.0021393 L7.80331685,39.7860382 C7.23432299,39.5217433 6.72304752,39.2485311 6.2737083,38.967456 Z M65.7257156,38.9677342 L65.7048478,38.9808345 C65.260707,39.2572022 64.7566454,39.5259385 64.1966831,39.7860382 L63.7140178,40.0021393 L63.2056646,40.2140586 C62.858317,40.3539148 62.4941956,40.4908953 62.114003,40.6248243 L61.5317487,40.8234072 L60.9259149,41.0172811 L60.2970285,41.2063143 L59.6614185,41.3866839 C59.1888976,45.1033879 58.2357453,48.6020362 56.8901949,51.7649845 C61.5973156,48.4037283 64.8021445,43.9302771 65.7257156,38.9677342 Z M36,30 C34.0083648,30 32.047079,30.0464361 30.1366453,30.1363815 C30.0464361,32.047079 30,34.0083648 30,36 C30,37.9916352 30.0464361,39.952921 30.1363815,41.8633547 C32.047079,41.9535639 34.0083648,42 36,42 C37.9916352,42 39.952921,41.9535639 41.8633547,41.8636185 C41.9535639,39.952921 42,37.9916352 42,36 C42,34.0083648 41.9535639,32.047079 41.8636185,30.1366453 C39.952921,30.0464361 37.9916352,30 36,30 Z M14.4246367,32.1452383 L14.1747122,32.2064005 C14.0594587,33.447975 14,34.7140346 14,36 C14,37.2859654 14.0594587,38.552025 14.1747122,39.7935995 L13.8576543,39.7165692 C17.8008754,40.7023745 22.7228865,41.4043562 28.1296369,41.7519877 L28.1047065,41.1905662 L28.0673635,40.1716773 C28.0618085,40.0010029 28.0565896,39.829906 28.0517097,39.6583977 L28.0265198,38.6244975 L28.0095965,37.5812488 L28.0010718,36.5291785 L28.0010718,35.4708215 L28.0095965,34.4187512 L28.0265198,33.3755025 L28.0517097,32.3416023 L28.0850346,31.3175779 C28.0912594,31.1477594 28.0978176,30.9783744 28.1047065,30.8094338 L28.1296369,30.2480123 C22.9790377,30.5791743 18.2683356,31.2319064 14.4246367,32.1452383 Z M43.8703631,30.2480123 L43.8952935,30.8094338 L43.9326365,31.8283227 C43.9381915,31.9989971 43.9434104,32.170094 43.9482903,32.3416023 L43.9734802,33.3755025 L43.9904035,34.4187512 L44,36 L43.9957239,37.0562834 C43.9943022,37.2316321 43.9925278,37.4066242 43.9904035,37.5812488 L43.9734802,38.6244975 L43.9482903,39.6583977 L43.9149654,40.6824221 C43.9087406,40.8522406 43.9021824,41.0216256 43.8952935,41.1905662 L43.8703631,41.7519877 C49.133452,41.4135931 53.9372191,40.7394288 57.8259587,39.7945476 C57.9405413,38.552025 58,37.2859654 58,36 C58,34.7140346 57.9405413,33.447975 57.8252878,32.2064005 L58.1423457,32.2834308 C54.1991246,31.2976255 49.2771135,30.5956438 43.8703631,30.2480123 Z M12.1217842,32.7562089 L12.143279,32.750521 C12.0355982,32.7824509 11.9292505,32.8145116 11.8242427,32.8466867 L11.2103251,33.0409775 C11.1107027,33.0735442 11.0124331,33.1061924 10.9155231,33.1389057 L10.3504303,33.3358347 L9.8182829,33.5335372 C9.7323547,33.5665083 9.64781241,33.5994788 9.56466263,33.6324323 L9.08252677,33.8298173 L8.63412757,34.0260053 C8.49031911,34.0911143 8.35218617,34.1558924 8.21978151,34.2202082 L7.83980509,34.4116378 L7.4945148,34.5995059 C7.43987452,34.6304767 7.38669267,34.6612662 7.33497587,34.6918581 L7.04230821,34.8729061 C6.35485392,35.3189395 6,35.7131106 6,36 C6,36.2868894 6.35485392,36.6810605 7.04230821,37.1270939 L7.33497587,37.3081419 C7.38669267,37.3387338 7.43987452,37.3695233 7.4945148,37.4004941 L7.83980509,37.5883622 L8.21978151,37.7797918 C8.28598384,37.8119497 8.35361824,37.8442232 8.42267811,37.8765958 L8.85409031,38.0718898 C8.92882571,38.1045933 9.00497339,38.1373631 9.08252677,38.1701827 L9.56466263,38.3675677 C9.64781241,38.4005212 9.7323547,38.4334917 9.8182829,38.4664628 L10.3504303,38.6641653 L10.9155231,38.8610943 C11.0124331,38.8938076 11.1107027,38.9264558 11.2103251,38.9590225 L11.8242427,39.1533133 C11.9224022,39.18339 12.0217325,39.2133668 12.122228,39.2432302 C12.0412476,38.1771137 12,37.0949794 12,36 C12,34.9050206 12.0412476,33.8228863 12.1217842,32.7562089 Z M59.877772,32.7567698 L59.8857311,32.8573509 C59.9613174,33.891273 60,34.9396133 60,36 C60,37.0949794 59.9587524,38.1771137 59.8782158,39.2437911 L59.856721,39.249479 C59.9644018,39.2175491 60.0707495,39.1854884 60.1757573,39.1533133 L60.7896749,38.9590225 C60.8892973,38.9264558 60.9875669,38.8938076 61.0844769,38.8610943 L61.6495697,38.6641653 L62.1817171,38.4664628 C62.2676453,38.4334917 62.3521876,38.4005212 62.4353374,38.3675677 L62.9174732,38.1701827 L63.3658724,37.9739947 C63.5096809,37.9088857 63.6478138,37.8441076 63.7802185,37.7797918 L64.1601949,37.5883622 L64.5054852,37.4004941 C64.5601255,37.3695233 64.6133073,37.3387338 64.6650241,37.3081419 L64.9576918,37.1270939 C65.6451461,36.6810605 66,36.2868894 66,36 C66,35.7131106 65.6451461,35.3189395 64.9576918,34.8729061 L64.6650241,34.6918581 C64.6133073,34.6612662 64.5601255,34.6304767 64.5054852,34.5995059 L64.1601949,34.4116378 L63.7802185,34.2202082 C63.7140162,34.1880503 63.6463818,34.1557768 63.5773219,34.1234042 L63.1459097,33.9281102 C63.0711743,33.8954067 62.9950266,33.8626369 62.9174732,33.8298173 L62.4353374,33.6324323 C62.3521876,33.5994788 62.2676453,33.5665083 62.1817171,33.5335372 L61.6495697,33.3358347 L61.0844769,33.1389057 C60.9875669,33.1061924 60.8892973,33.0735442 60.7896749,33.0409775 L60.1757573,32.8466867 C60.0775978,32.81661 59.9782675,32.7866332 59.877772,32.7567698 Z M15.1098051,20.2350155 L15.0750256,20.2600322 C10.3868864,23.6183457 7.19557711,28.0819649 6.27428443,33.0322658 C6.72304752,32.7514689 7.23432299,32.4782567 7.80331685,32.2139618 L8.28598219,31.9978607 L8.79433537,31.7859414 C9.14168298,31.6460852 9.50580444,31.5091047 9.88599699,31.3751757 L10.4682513,31.1765928 L11.0740851,30.9827189 L11.7029715,30.7936857 L12.3385815,30.6133161 C12.8111024,26.8966121 13.7642547,23.3979638 15.1098051,20.2350155 Z M56.8901658,20.2351373 L56.9689458,20.4215869 C58.2729647,23.5353446 59.1981691,26.9695391 59.6614185,30.6133161 L60.2970285,30.7936857 L60.9259149,30.9827189 L61.5317487,31.1765928 L62.114003,31.3751757 C62.4941956,31.5091047 62.858317,31.6460852 63.2056646,31.7859414 L63.7140178,31.9978607 L64.1966831,32.2139618 C64.765677,32.4782567 65.2769525,32.7514689 65.7262917,33.032544 C64.8021445,28.0697229 61.5973156,23.5962717 56.8901658,20.2351373 Z M18.611384,18.0871025 L18.2693775,18.2690586 C16.4070555,21.715515 15.069643,25.7271407 14.4281093,30.0902499 L14.4385002,30.0885958 L15.1747429,29.9257429 L15.9308756,29.7685213 L16.7063713,29.6170628 L17.500703,29.4714992 L18.3133435,29.3319623 L19.1437657,29.1985838 L19.9914426,29.0714955 L20.8558472,28.9508292 L21.7364523,28.8367166 L22.6327309,28.7292895 L23.5441559,28.6286797 C23.697293,28.6124868 23.8510392,28.5965834 24.0053836,28.5809724 L24.9385399,28.4908355 L25.885525,28.4078453 L26.8458117,28.3321336 L27.818873,28.263832 L28.237,28.237 L28.263832,27.818873 L28.3321336,26.8458117 L28.4078453,25.885525 L28.4908355,24.9385399 L28.5809724,24.0053836 L28.6781242,23.086583 L28.7821591,22.1826653 L28.8929455,21.2941576 L29.0103514,20.4215869 L29.1342452,19.5654803 L29.264495,18.7263648 L29.4009692,17.9047676 L29.5435359,17.1012156 L29.6920634,16.3162361 C29.7173074,16.1869831 29.7427943,16.058526 29.7685213,15.9308756 L29.9257429,15.1747429 L30.0885958,14.4385002 L30.0902499,14.4281093 C25.8708258,15.0485161 21.9801164,16.3197234 18.611384,18.0871025 Z M41.9097501,14.4281093 L41.9114042,14.4385002 L42.0742571,15.1747429 L42.2314787,15.9308756 L42.3829372,16.7063713 L42.5285008,17.500703 L42.6680377,18.3133435 L42.8014162,19.1437657 L42.9285045,19.9914426 L43.0491708,20.8558472 L43.1632834,21.7364523 L43.2707105,22.6327309 L43.3713203,23.5441559 C43.3875132,23.697293 43.4034166,23.8510392 43.4190276,24.0053836 L43.5091645,24.9385399 L43.5921547,25.885525 L43.6678664,26.8458117 L43.736168,27.818873 L43.762,28.237 L44.181127,28.263832 L45.1541883,28.3321336 L46.114475,28.4078453 L47.0614601,28.4908355 L47.9946164,28.5809724 L48.913417,28.6781242 L49.8173347,28.7821591 L50.7058424,28.8929455 L51.5784131,29.0103514 L52.4345197,29.1342452 L53.2736352,29.264495 L54.0952324,29.4009692 L54.8987844,29.5435359 L55.6837639,29.6920634 C55.8130169,29.7173074 55.941474,29.7427943 56.0691244,29.7685213 L56.8252571,29.9257429 L57.5614998,30.0885958 L57.5718907,30.0902499 C56.930357,25.7271407 55.5929445,21.715515 53.7306225,18.2690586 C50.284485,16.4070555 46.2728593,15.069643 41.9097501,14.4281093 Z M36,14 C34.7140346,14 33.447975,14.0594587 32.2064005,14.1747122 L32.2834308,13.8576543 C31.2976255,17.8008754 30.5956438,22.7228865 30.2480123,28.1296369 L30.8094338,28.1047065 L31.8283227,28.0673635 C31.9989971,28.0618085 32.170094,28.0565896 32.3416023,28.0517097 L33.3755025,28.0265198 L34.4187512,28.0095965 L35.4708215,28.0010718 C35.6468724,28.0003582 35.8232689,28 36,28 L37.0562834,28.0042761 C37.2316321,28.0056978 37.4066242,28.0074722 37.5812488,28.0095965 L38.6244975,28.0265198 L39.6583977,28.0517097 L40.6824221,28.0850346 C40.8522406,28.0912594 41.0216256,28.0978176 41.1905662,28.1047065 L41.7519877,28.1296369 C41.4135931,22.866548 40.7394288,18.0627809 39.7945476,14.1740413 C38.552025,14.0594587 37.2859654,14 36,14 Z M23.3796708,8.77627092 L23.0462488,8.93309674 C16.7736715,11.9404776 11.708646,17.0640614 8.77611925,23.3789011 C10.8832903,20.8284647 13.610056,18.5954456 16.7989133,16.7988545 C18.5954456,13.610056 20.8284647,10.8832903 23.3796708,8.77627092 Z M48.6210989,8.77611925 L48.6421757,8.79433537 C51.1842842,10.8988662 53.4096844,13.6191615 55.2011455,16.7989133 C58.389944,18.5954456 61.1167097,20.8284647 63.2237291,23.3796708 C60.2396884,16.9528058 55.0471942,11.7603116 48.6210989,8.77611925 Z M33.032544,6.2737083 L32.8133512,6.31656747 C27.9382123,7.29256966 23.5467758,10.4720018 20.2351373,15.1098342 C23.3979638,13.7642547 26.8966121,12.8111024 30.6133161,12.3385815 L30.7936857,11.7029715 L30.9827189,11.0740851 L31.1765928,10.4682513 L31.3751757,9.88599699 C31.5091047,9.50580444 31.6460852,9.14168298 31.7859414,8.79433537 L31.9978607,8.28598219 L32.2139618,7.80331685 C32.4782567,7.23432299 32.7514689,6.72304752 33.032544,6.2737083 Z M38.9677342,6.27428443 L38.9808345,6.2951522 C39.2572022,6.73929303 39.5259385,7.24335464 39.7860382,7.80331685 L40.0021393,8.28598219 L40.2140586,8.79433537 C40.3539148,9.14168298 40.4908953,9.50580444 40.6248243,9.88599699 L40.8234072,10.4682513 L41.0172811,11.0740851 L41.2063143,11.7029715 L41.3866839,12.3385815 C45.1033879,12.8111024 48.6020362,13.7642547 51.7649845,15.1098051 C48.4037283,10.4026844 43.9302771,7.19785545 38.9677342,6.27428443 Z M36,6 C35.7131106,6 35.3189395,6.35485392 34.8729061,7.04230821 L34.6918581,7.33497587 C34.6612662,7.38669267 34.6304767,7.43987452 34.5995059,7.4945148 L34.4116378,7.83980509 L34.2202082,8.21978151 C34.1880503,8.28598384 34.1557768,8.35361824 34.1234042,8.42267811 L33.9281102,8.85409031 C33.8954067,8.92882571 33.8626369,9.00497339 33.8298173,9.08252677 L33.6324323,9.56466263 C33.5994788,9.64781241 33.5665083,9.7323547 33.5335372,9.8182829 L33.3358347,10.3504303 L33.1389057,10.9155231 C33.1061924,11.0124331 33.0735442,11.1107027 33.0409775,11.2103251 L32.8466867,11.8242427 C32.81661,11.9224022 32.7866332,12.0217325 32.7567698,12.122228 C33.8228863,12.0412476 34.9050206,12 36,12 C37.0949794,12 38.1771137,12.0412476 39.2437911,12.1217842 L39.249479,12.143279 C39.2175491,12.0355982 39.1854884,11.9292505 39.1533133,11.8242427 L38.9590225,11.2103251 C38.9264558,11.1107027 38.8938076,11.0124331 38.8610943,10.9155231 L38.6641653,10.3504303 L38.4664628,9.8182829 C38.4334917,9.7323547 38.4005212,9.64781241 38.3675677,9.56466263 L38.1701827,9.08252677 L37.9739947,8.63412757 C37.9088857,8.49031911 37.8441076,8.35218617 37.7797918,8.21978151 L37.5883622,7.83980509 L37.4004941,7.4945148 C37.3695233,7.43987452 37.3387338,7.38669267 37.3081419,7.33497587 L37.1270939,7.04230821 C36.6810605,6.35485392 36.2868894,6 36,6 Z" id="Combined-Shape" fill="#202020" fill-rule="nonzero"></path>
            </g>
        </g>
    </g>
</svg>