<?xml version="1.0" encoding="UTF-8"?>
<svg width="72px" height="72px" viewBox="0 0 72 72" version="1.1" xmlns="http://www.w3.org/2000/svg" xmlns:xlink="http://www.w3.org/1999/xlink">
    <title>ic_ADD_PHONE_LINE</title>
    <defs>
        <rect id="path-1" x="0" y="0" width="10" height="64"></rect>
        <rect id="path-3" x="0" y="0" width="10" height="64"></rect>
    </defs>
    <g id="Homepage" stroke="none" stroke-width="1" fill="none" fill-rule="evenodd">
        <g id="00---Carousel-Frame-02" transform="translate(-804.000000, -948.000000)">
            <g id="Mobile-Internet" transform="translate(772.000000, 948.000000)">
                <g id="ic_ADD_PHONE_LINE" transform="translate(32.000000, 0.000000)">
                    <rect id="Rectangle" x="0" y="0" width="72" height="72"></rect>
                    <g id="phone-right" transform="translate(54.000000, 4.000000)">
                        <mask id="mask-2" fill="white">
                            <use xlink:href="#path-1"></use>
                        </mask>
                        <g id="Rectangle"></g>
                        <path d="M4,0 C7.3137085,0 10,2.6862915 10,6 L10,58 C10,61.3137085 7.3137085,64 4,64 L-24,64 C-27.3137085,64 -30,61.3137085 -30,58 L-30,6 C-30,2.6862915 -27.3137085,0 -24,0 L4,0 Z M4,2 L-24,2 C-26.1421954,2 -27.8910789,3.68396847 -27.9951047,5.80035966 L-28,6 L-28,58 C-28,60.1421954 -26.3160315,61.8910789 -24.1996403,61.9951047 L-24,62 L4,62 C6.14219539,62 7.89107888,60.3160315 7.99510469,58.1996403 L8,58 L8,6 C8,3.85780461 6.31603153,2.10892112 4.19964034,2.00489531 L4,2 Z" id="Rectangle" fill="#202020" fill-rule="nonzero" mask="url(#mask-2)"></path>
                    </g>
                    <g id="phone-left" transform="translate(8.000000, 4.000000)">
                        <mask id="mask-4" fill="white">
                            <use xlink:href="#path-3"></use>
                        </mask>
                        <g id="Rectangle"></g>
                        <path d="M34,0 C37.3137085,0 40,2.6862915 40,6 L40,58 C40,61.3137085 37.3137085,64 34,64 L6,64 C2.6862915,64 0,61.3137085 0,58 L0,6 C0,2.6862915 2.6862915,0 6,0 L34,0 Z M34,2 L6,2 C3.85780461,2 2.10892112,3.68396847 2.00489531,5.80035966 L2,6 L2,58 C2,60.1421954 3.68396847,61.8910789 5.80035966,61.9951047 L6,62 L34,62 C36.1421954,62 37.8910789,60.3160315 37.9951047,58.1996403 L38,58 L38,6 C38,3.85780461 36.3160315,2.10892112 34.1996403,2.00489531 L34,2 Z" id="Rectangle" fill="#202020" fill-rule="nonzero" mask="url(#mask-4)"></path>
                    </g>
                    <path d="M50,4.54747351e-13 C53.3137085,4.54747351e-13 56,2.6862915 56,6 L56,66 C56,69.3137085 53.3137085,72 50,72 L22,72 C18.6862915,72 16,69.3137085 16,66 L16,6 C16,2.6862915 18.6862915,4.54747351e-13 22,4.54747351e-13 L50,4.54747351e-13 Z M50,2 L22,2 C19.8578046,2 18.1089211,3.68396847 18.0048953,5.80035966 L18,6 L18,66 C18,68.1421954 19.6839685,69.8910789 21.8003597,69.9951047 L22,70 L50,70 C52.1421954,70 53.8910789,68.3160315 53.9951047,66.1996403 L54,66 L54,6 C54,3.85780461 52.3160315,2.10892112 50.1996403,2.00489531 L50,2 Z" id="Rectangle" fill="#202020" fill-rule="nonzero"></path>
                    <path d="M37,66 C37.5522847,66 38,66.4477153 38,67 C38,67.5522847 37.5522847,68 37,68 L35,68 C34.4477153,68 34,67.5522847 34,67 C34,66.4477153 34.4477153,66 35,66 L37,66 Z" id="Rectangle" fill="#202020" fill-rule="nonzero"></path>
                    <path d="M44,2 C44,3.1045695 43.1045695,4 42,4 L30,4 C28.8954305,4 28,3.1045695 28,2 L44,2 Z" id="Rectangle" fill="#202020" fill-rule="nonzero"></path>
                    <path d="M36,28 C36.5522847,28 37,28.4477153 37,29 L37,43 C37,43.5522847 36.5522847,44 36,44 C35.4477153,44 35,43.5522847 35,43 L35,29 C35,28.4477153 35.4477153,28 36,28 Z" id="Rectangle" fill="#202020" fill-rule="nonzero"></path>
                    <path d="M43,35 C43.5522847,35 44,35.4477153 44,36 C44,36.5522847 43.5522847,37 43,37 L29,37 C28.4477153,37 28,36.5522847 28,36 C28,35.4477153 28.4477153,35 29,35 L43,35 Z" id="Rectangle" fill="#202020" fill-rule="nonzero"></path>
                </g>
            </g>
        </g>
    </g>
</svg>